<?xml version="1.0" encoding="iso-8859-1"?>
<!-- Generator: Adobe Illustrator 18.0.0, SVG Export Plug-In . SVG Version: 6.00 Build 0)  -->
<!DOCTYPE svg PUBLIC "-//W3C//DTD SVG 1.1//EN" "http://www.w3.org/Graphics/SVG/1.1/DTD/svg11.dtd">
<svg version="1.1" id="_x31_" xmlns="http://www.w3.org/2000/svg" xmlns:xlink="http://www.w3.org/1999/xlink" x="0px" y="0px"
	 viewBox="0 0 512 512" style="enable-background:new 0 0 512 512;" xml:space="preserve">
<g>
	<rect style="fill:#D7DE98;" width="510.087" height="510.087"/>
	<polygon style="fill:none;" points="266.861,190.931 319.132,190.931 331.33,178.734 266.861,178.734 	"/>
	<polygon style="fill:none;" points="240.442,269.62 232.746,277.317 240.442,277.317 	"/>
	<path style="opacity:0.1;fill:#040000;" d="M510.087,382.03V218.266L402,110.179l-39.328,39.277l-23.464-23.464l-42.58,42.579
		l-33.449-33.448l-26.729-26.728l-3.826-3.826h-70.902l-3.826,3.826l-12.803,12.854l-8.926,8.876l-1.683,1.683l-34.89,34.89v7.243
		c0,2.653,2.142,4.795,4.795,4.795h1.709l12.191,12.191h-13.9c-2.653,0-4.795,2.143-4.795,4.795v64.577
		c0,2.653,2.142,4.846,4.795,4.846h2.015l12.191,12.191h-14.206c-2.653,0-4.795,2.143-4.795,4.794v62.588l165.37,165.37h20.429
		h163.891h8.927h9.386H512V383.943L510.087,382.03z"/>
	<g>
		<g>
			<rect x="240.455" y="147.058" style="fill:#595C5A;" width="26.422" height="232.039"/>
			<polygon style="fill:#595C5A;" points="132.196,379.075 144.93,405.494 240.442,405.494 240.442,379.075 			"/>
			<polygon style="fill:#595C5A;" points="266.861,379.075 266.861,405.494 365.157,405.494 377.891,379.075 			"/>
			<rect x="240.442" y="379.075" style="fill:#979696;" width="26.419" height="26.419"/>
			<path style="fill:#595C5A;" d="M412.405,109.362v64.577c0,2.653-2.142,4.795-4.795,4.795H102.476
				c-2.652,0-4.795-2.143-4.795-4.795v-64.577c0-2.653,2.142-4.794,4.795-4.794h305.134
				C410.263,104.568,412.405,106.71,412.405,109.362z"/>
			<path style="fill:#595C5A;" d="M412.405,195.72v64.577c0,2.653-2.142,4.846-4.795,4.846H102.476
				c-2.652,0-4.795-2.193-4.795-4.846V195.72c0-2.652,2.142-4.795,4.795-4.795h305.134
				C410.263,190.925,412.405,193.068,412.405,195.72z"/>
			<path style="fill:#595C5A;" d="M412.405,282.129v64.577c0,2.653-2.142,4.795-4.795,4.795H102.476
				c-2.652,0-4.795-2.142-4.795-4.795v-64.577c0-2.652,2.142-4.794,4.795-4.794h305.134
				C410.263,277.334,412.405,279.477,412.405,282.129z"/>
			<path style="fill:#FFFFFF;" d="M400.391,108.395H109.697c-4.519,0-8.182,3.663-8.182,8.182v50.125
				c0,4.519,3.663,8.182,8.182,8.182h290.694c4.519,0,8.182-3.663,8.182-8.182v-50.125
				C408.573,112.058,404.909,108.395,400.391,108.395z"/>
			<path style="fill:#FFFFFF;" d="M400.391,194.781H109.697c-4.519,0-8.182,3.663-8.182,8.182v50.124
				c0,4.519,3.663,8.182,8.182,8.182h290.694c4.519,0,8.182-3.663,8.182-8.182v-50.124
				C408.573,198.444,404.909,194.781,400.391,194.781z"/>
			<path style="fill:#FFFFFF;" d="M400.391,281.167H109.697c-4.519,0-8.182,3.663-8.182,8.182v50.125
				c0,4.519,3.663,8.182,8.182,8.182h290.694c4.519,0,8.182-3.663,8.182-8.182v-50.125
				C408.573,284.83,404.909,281.167,400.391,281.167z"/>
			<g>
				<g>
					<path style="fill:#595C5A;" d="M132.939,120.87h-8.315c-0.718,0-1.301,0.583-1.301,1.301v8.328
						c0,0.719,0.583,1.301,1.301,1.301h8.315c0.719,0,1.301-0.582,1.301-1.301v-8.328C134.24,121.453,133.658,120.87,132.939,120.87
						z"/>
					<path style="fill:#595C5A;" d="M132.939,136.7h-8.315c-0.718,0-1.301,0.582-1.301,1.301v8.328c0,0.718,0.583,1.301,1.301,1.301
						h8.315c0.719,0,1.301-0.583,1.301-1.301v-8.328C134.24,137.283,133.658,136.7,132.939,136.7z"/>
					<path style="fill:#595C5A;" d="M132.939,152.53h-8.315c-0.718,0-1.301,0.583-1.301,1.301v8.328
						c0,0.719,0.583,1.301,1.301,1.301h8.315c0.719,0,1.301-0.583,1.301-1.301v-8.328C134.24,153.112,133.658,152.53,132.939,152.53
						z"/>
				</g>
				<g>
					<path style="fill:#595C5A;" d="M152.405,120.87h-8.314c-0.719,0-1.301,0.583-1.301,1.301v8.328
						c0,0.719,0.582,1.301,1.301,1.301h8.314c0.719,0,1.301-0.582,1.301-1.301v-8.328
						C153.706,121.453,153.124,120.87,152.405,120.87z"/>
					<path style="fill:#595C5A;" d="M152.405,136.7h-8.314c-0.719,0-1.301,0.582-1.301,1.301v8.328c0,0.718,0.582,1.301,1.301,1.301
						h8.314c0.719,0,1.301-0.583,1.301-1.301v-8.328C153.706,137.283,153.124,136.7,152.405,136.7z"/>
					<path style="fill:#595C5A;" d="M152.405,152.53h-8.314c-0.719,0-1.301,0.583-1.301,1.301v8.328
						c0,0.719,0.582,1.301,1.301,1.301h8.314c0.719,0,1.301-0.583,1.301-1.301v-8.328
						C153.706,153.112,153.124,152.53,152.405,152.53z"/>
				</g>
				<g>
					<path style="fill:#595C5A;" d="M171.871,120.87h-8.315c-0.719,0-1.301,0.583-1.301,1.301v8.328
						c0,0.719,0.583,1.301,1.301,1.301h8.315c0.719,0,1.301-0.582,1.301-1.301v-8.328C173.172,121.453,172.59,120.87,171.871,120.87
						z"/>
					<path style="fill:#595C5A;" d="M171.871,136.7h-8.315c-0.719,0-1.301,0.582-1.301,1.301v8.328c0,0.718,0.583,1.301,1.301,1.301
						h8.315c0.719,0,1.301-0.583,1.301-1.301v-8.328C173.172,137.283,172.59,136.7,171.871,136.7z"/>
					<path style="fill:#595C5A;" d="M171.871,152.53h-8.315c-0.719,0-1.301,0.583-1.301,1.301v8.328
						c0,0.719,0.583,1.301,1.301,1.301h8.315c0.719,0,1.301-0.583,1.301-1.301v-8.328C173.172,153.112,172.59,152.53,171.871,152.53
						z"/>
				</g>
				<g>
					<path style="fill:#595C5A;" d="M191.338,120.87h-8.315c-0.719,0-1.301,0.583-1.301,1.301v8.328
						c0,0.719,0.582,1.301,1.301,1.301h8.315c0.718,0,1.301-0.582,1.301-1.301v-8.328
						C192.639,121.453,192.056,120.87,191.338,120.87z"/>
					<path style="fill:#595C5A;" d="M191.338,136.7h-8.315c-0.719,0-1.301,0.582-1.301,1.301v8.328c0,0.718,0.582,1.301,1.301,1.301
						h8.315c0.718,0,1.301-0.583,1.301-1.301v-8.328C192.639,137.283,192.056,136.7,191.338,136.7z"/>
					<path style="fill:#595C5A;" d="M191.338,152.53h-8.315c-0.719,0-1.301,0.583-1.301,1.301v8.328
						c0,0.719,0.582,1.301,1.301,1.301h8.315c0.718,0,1.301-0.583,1.301-1.301v-8.328
						C192.639,153.112,192.056,152.53,191.338,152.53z"/>
				</g>
				<g>
					<path style="fill:#595C5A;" d="M210.804,120.87h-8.314c-0.719,0-1.301,0.583-1.301,1.301v8.328
						c0,0.719,0.582,1.301,1.301,1.301h8.314c0.719,0,1.301-0.582,1.301-1.301v-8.328
						C212.105,121.453,211.522,120.87,210.804,120.87z"/>
					<path style="fill:#595C5A;" d="M210.804,136.7h-8.314c-0.719,0-1.301,0.582-1.301,1.301v8.328c0,0.718,0.582,1.301,1.301,1.301
						h8.314c0.719,0,1.301-0.583,1.301-1.301v-8.328C212.105,137.283,211.522,136.7,210.804,136.7z"/>
					<path style="fill:#595C5A;" d="M210.804,152.53h-8.314c-0.719,0-1.301,0.583-1.301,1.301v8.328
						c0,0.719,0.582,1.301,1.301,1.301h8.314c0.719,0,1.301-0.583,1.301-1.301v-8.328
						C212.105,153.112,211.522,152.53,210.804,152.53z"/>
				</g>
			</g>
			<rect x="236.059" y="135.122" style="fill:#979696;" width="61.604" height="13.034"/>
			<circle style="fill:#529F77;" cx="324.724" cy="142.165" r="11.979"/>
			<circle style="fill:#C9C980;" cx="353.817" cy="142.165" r="11.979"/>
			<circle style="fill:#B3657C;" cx="382.909" cy="142.165" r="11.979"/>
			<g>
				<g>
					<path style="fill:#595C5A;" d="M132.939,207.257h-8.315c-0.718,0-1.301,0.583-1.301,1.301v8.328
						c0,0.718,0.583,1.301,1.301,1.301h8.315c0.719,0,1.301-0.582,1.301-1.301v-8.328
						C134.24,207.839,133.658,207.257,132.939,207.257z"/>
					<path style="fill:#595C5A;" d="M132.939,223.086h-8.315c-0.718,0-1.301,0.582-1.301,1.301v8.328
						c0,0.719,0.583,1.301,1.301,1.301h8.315c0.719,0,1.301-0.583,1.301-1.301v-8.328
						C134.24,223.669,133.658,223.086,132.939,223.086z"/>
					<path style="fill:#595C5A;" d="M132.939,238.916h-8.315c-0.718,0-1.301,0.583-1.301,1.301v8.328
						c0,0.719,0.583,1.301,1.301,1.301h8.315c0.719,0,1.301-0.582,1.301-1.301v-8.328
						C134.24,239.498,133.658,238.916,132.939,238.916z"/>
				</g>
				<g>
					<path style="fill:#595C5A;" d="M152.405,207.257h-8.314c-0.719,0-1.301,0.583-1.301,1.301v8.328
						c0,0.718,0.582,1.301,1.301,1.301h8.314c0.719,0,1.301-0.582,1.301-1.301v-8.328
						C153.706,207.839,153.124,207.257,152.405,207.257z"/>
					<path style="fill:#595C5A;" d="M152.405,223.086h-8.314c-0.719,0-1.301,0.582-1.301,1.301v8.328
						c0,0.719,0.582,1.301,1.301,1.301h8.314c0.719,0,1.301-0.583,1.301-1.301v-8.328
						C153.706,223.669,153.124,223.086,152.405,223.086z"/>
					<path style="fill:#595C5A;" d="M152.405,238.916h-8.314c-0.719,0-1.301,0.583-1.301,1.301v8.328
						c0,0.719,0.582,1.301,1.301,1.301h8.314c0.719,0,1.301-0.582,1.301-1.301v-8.328
						C153.706,239.498,153.124,238.916,152.405,238.916z"/>
				</g>
				<g>
					<path style="fill:#595C5A;" d="M171.871,207.257h-8.315c-0.719,0-1.301,0.583-1.301,1.301v8.328
						c0,0.718,0.583,1.301,1.301,1.301h8.315c0.719,0,1.301-0.582,1.301-1.301v-8.328
						C173.172,207.839,172.59,207.257,171.871,207.257z"/>
					<path style="fill:#595C5A;" d="M171.871,223.086h-8.315c-0.719,0-1.301,0.582-1.301,1.301v8.328
						c0,0.719,0.583,1.301,1.301,1.301h8.315c0.719,0,1.301-0.583,1.301-1.301v-8.328
						C173.172,223.669,172.59,223.086,171.871,223.086z"/>
					<path style="fill:#595C5A;" d="M171.871,238.916h-8.315c-0.719,0-1.301,0.583-1.301,1.301v8.328
						c0,0.719,0.583,1.301,1.301,1.301h8.315c0.719,0,1.301-0.582,1.301-1.301v-8.328
						C173.172,239.498,172.59,238.916,171.871,238.916z"/>
				</g>
				<g>
					<path style="fill:#595C5A;" d="M191.338,207.257h-8.315c-0.719,0-1.301,0.583-1.301,1.301v8.328
						c0,0.718,0.582,1.301,1.301,1.301h8.315c0.718,0,1.301-0.582,1.301-1.301v-8.328
						C192.639,207.839,192.056,207.257,191.338,207.257z"/>
					<path style="fill:#595C5A;" d="M191.338,223.086h-8.315c-0.719,0-1.301,0.582-1.301,1.301v8.328
						c0,0.719,0.582,1.301,1.301,1.301h8.315c0.718,0,1.301-0.583,1.301-1.301v-8.328
						C192.639,223.669,192.056,223.086,191.338,223.086z"/>
					<path style="fill:#595C5A;" d="M191.338,238.916h-8.315c-0.719,0-1.301,0.583-1.301,1.301v8.328
						c0,0.719,0.582,1.301,1.301,1.301h8.315c0.718,0,1.301-0.582,1.301-1.301v-8.328
						C192.639,239.498,192.056,238.916,191.338,238.916z"/>
				</g>
				<g>
					<path style="fill:#595C5A;" d="M210.804,207.257h-8.314c-0.719,0-1.301,0.583-1.301,1.301v8.328
						c0,0.718,0.582,1.301,1.301,1.301h8.314c0.719,0,1.301-0.582,1.301-1.301v-8.328
						C212.105,207.839,211.522,207.257,210.804,207.257z"/>
					<path style="fill:#595C5A;" d="M210.804,223.086h-8.314c-0.719,0-1.301,0.582-1.301,1.301v8.328
						c0,0.719,0.582,1.301,1.301,1.301h8.314c0.719,0,1.301-0.583,1.301-1.301v-8.328
						C212.105,223.669,211.522,223.086,210.804,223.086z"/>
					<path style="fill:#595C5A;" d="M210.804,238.916h-8.314c-0.719,0-1.301,0.583-1.301,1.301v8.328
						c0,0.719,0.582,1.301,1.301,1.301h8.314c0.719,0,1.301-0.582,1.301-1.301v-8.328
						C212.105,239.498,211.522,238.916,210.804,238.916z"/>
				</g>
			</g>
			<rect x="236.059" y="221.508" style="fill:#979696;" width="61.604" height="13.034"/>
			<circle style="fill:#529F77;" cx="324.724" cy="228.551" r="11.979"/>
			<circle style="fill:#C9C980;" cx="353.817" cy="228.551" r="11.979"/>
			<circle style="fill:#B3657C;" cx="382.909" cy="228.551" r="11.979"/>
			<g>
				<g>
					<path style="fill:#595C5A;" d="M132.939,293.642h-8.315c-0.718,0-1.301,0.582-1.301,1.301v8.328
						c0,0.719,0.583,1.301,1.301,1.301h8.315c0.719,0,1.301-0.582,1.301-1.301v-8.328
						C134.24,294.225,133.658,293.642,132.939,293.642z"/>
					<path style="fill:#595C5A;" d="M132.939,309.472h-8.315c-0.718,0-1.301,0.582-1.301,1.301v8.328
						c0,0.718,0.583,1.301,1.301,1.301h8.315c0.719,0,1.301-0.582,1.301-1.301v-8.328
						C134.24,310.055,133.658,309.472,132.939,309.472z"/>
					<path style="fill:#595C5A;" d="M132.939,325.302h-8.315c-0.718,0-1.301,0.582-1.301,1.301v8.328
						c0,0.719,0.583,1.301,1.301,1.301h8.315c0.719,0,1.301-0.582,1.301-1.301v-8.328
						C134.24,325.884,133.658,325.302,132.939,325.302z"/>
				</g>
				<g>
					<path style="fill:#595C5A;" d="M152.405,293.642h-8.314c-0.719,0-1.301,0.582-1.301,1.301v8.328
						c0,0.719,0.582,1.301,1.301,1.301h8.314c0.719,0,1.301-0.582,1.301-1.301v-8.328
						C153.706,294.225,153.124,293.642,152.405,293.642z"/>
					<path style="fill:#595C5A;" d="M152.405,309.472h-8.314c-0.719,0-1.301,0.582-1.301,1.301v8.328
						c0,0.718,0.582,1.301,1.301,1.301h8.314c0.719,0,1.301-0.582,1.301-1.301v-8.328
						C153.706,310.055,153.124,309.472,152.405,309.472z"/>
					<path style="fill:#595C5A;" d="M152.405,325.302h-8.314c-0.719,0-1.301,0.582-1.301,1.301v8.328
						c0,0.719,0.582,1.301,1.301,1.301h8.314c0.719,0,1.301-0.582,1.301-1.301v-8.328
						C153.706,325.884,153.124,325.302,152.405,325.302z"/>
				</g>
				<g>
					<path style="fill:#595C5A;" d="M171.871,293.642h-8.315c-0.719,0-1.301,0.582-1.301,1.301v8.328
						c0,0.719,0.583,1.301,1.301,1.301h8.315c0.719,0,1.301-0.582,1.301-1.301v-8.328
						C173.172,294.225,172.59,293.642,171.871,293.642z"/>
					<path style="fill:#595C5A;" d="M171.871,309.472h-8.315c-0.719,0-1.301,0.582-1.301,1.301v8.328
						c0,0.718,0.583,1.301,1.301,1.301h8.315c0.719,0,1.301-0.582,1.301-1.301v-8.328
						C173.172,310.055,172.59,309.472,171.871,309.472z"/>
					<path style="fill:#595C5A;" d="M171.871,325.302h-8.315c-0.719,0-1.301,0.582-1.301,1.301v8.328
						c0,0.719,0.583,1.301,1.301,1.301h8.315c0.719,0,1.301-0.582,1.301-1.301v-8.328
						C173.172,325.884,172.59,325.302,171.871,325.302z"/>
				</g>
				<g>
					<path style="fill:#595C5A;" d="M191.338,293.642h-8.315c-0.719,0-1.301,0.582-1.301,1.301v8.328
						c0,0.719,0.582,1.301,1.301,1.301h8.315c0.718,0,1.301-0.582,1.301-1.301v-8.328
						C192.639,294.225,192.056,293.642,191.338,293.642z"/>
					<path style="fill:#595C5A;" d="M191.338,309.472h-8.315c-0.719,0-1.301,0.582-1.301,1.301v8.328
						c0,0.718,0.582,1.301,1.301,1.301h8.315c0.718,0,1.301-0.582,1.301-1.301v-8.328
						C192.639,310.055,192.056,309.472,191.338,309.472z"/>
					<path style="fill:#595C5A;" d="M191.338,325.302h-8.315c-0.719,0-1.301,0.582-1.301,1.301v8.328
						c0,0.719,0.582,1.301,1.301,1.301h8.315c0.718,0,1.301-0.582,1.301-1.301v-8.328
						C192.639,325.884,192.056,325.302,191.338,325.302z"/>
				</g>
				<g>
					<path style="fill:#595C5A;" d="M210.804,293.642h-8.314c-0.719,0-1.301,0.582-1.301,1.301v8.328
						c0,0.719,0.582,1.301,1.301,1.301h8.314c0.719,0,1.301-0.582,1.301-1.301v-8.328
						C212.105,294.225,211.522,293.642,210.804,293.642z"/>
					<path style="fill:#595C5A;" d="M210.804,309.472h-8.314c-0.719,0-1.301,0.582-1.301,1.301v8.328
						c0,0.718,0.582,1.301,1.301,1.301h8.314c0.719,0,1.301-0.582,1.301-1.301v-8.328
						C212.105,310.055,211.522,309.472,210.804,309.472z"/>
					<path style="fill:#595C5A;" d="M210.804,325.302h-8.314c-0.719,0-1.301,0.582-1.301,1.301v8.328
						c0,0.719,0.582,1.301,1.301,1.301h8.314c0.719,0,1.301-0.582,1.301-1.301v-8.328
						C212.105,325.884,211.522,325.302,210.804,325.302z"/>
				</g>
			</g>
			<rect x="236.059" y="307.895" style="fill:#979696;" width="61.604" height="13.034"/>
			<circle style="fill:#529F77;" cx="324.724" cy="314.937" r="11.979"/>
			<circle style="fill:#C9C980;" cx="353.817" cy="314.937" r="11.979"/>
			<circle style="fill:#B3657C;" cx="382.909" cy="314.937" r="11.979"/>
		</g>
		<g style="opacity:0.5;">
			<path style="opacity:0.07;fill:#040000;" d="M266.877,265.143v12.191h140.733c2.653,0,4.795,2.143,4.795,4.794v64.577
				c0,2.653-2.142,4.795-4.795,4.795H266.877v27.596h110.995l-12.701,26.423H144.916l-12.548-26.117l-0.153-0.306h108.24v-27.596
				h-81.92l34.125-34.125l12.854-12.803l27.238-27.238h7.702v-7.702l35.094-35.094l12.956-13.007l26.729-26.729l2.857-2.857
				l1.02-1.02h88.5c2.653,0,4.795,2.143,4.795,4.795v64.577c0,2.653-2.142,4.846-4.795,4.846H266.877z"/>
			<path style="opacity:0.07;fill:#040000;" d="M407.61,104.545h-2.092l-74.189,74.189h76.281c2.658,0,4.813-2.154,4.813-4.812
				v-64.564C412.423,106.7,410.268,104.545,407.61,104.545z"/>
		</g>
	</g>
</g>
</svg>
